<svg xmlns="http://www.w3.org/2000/svg" xmlns:xlink="http://www.w3.org/1999/xlink" x="0" y="0" version="1.1" viewBox="0 0 2880 1800" style="enable-background:new 0 0 2880 1800" xml:space="preserve"><g id="Charas"><path d="M2708,1137h-41l-74,199h47c0,0,17.17-55.22,21.08-65.11c3.92-9.89,26.28-58.37,26.28-58.37L2711,1270l-45.3,0.19 c0,0,32.24,20.81,44.5,30.39c4.93,3.86,12.73,6.94,14.19,11.87c2.03,6.86,10.6,23.56,10.6,23.56h42L2708,1137z"/><polygon points="2540 1137 2495 1137 2495 1260 2434 1137 2387 1137 2387 1336 2430.63 1336.07 2430.87 1213.88 2492 1336 2540 1336"/><polygon points="2312 1137 2267 1137 2267 1260 2206 1137 2159 1137 2159 1336 2202.63 1336.07 2202.87 1213.88 2264 1336 2312 1336"/><polygon points="2007 1290 2007 1250 2070 1250 2070 1213 2007 1213 2007 1183 2084 1183 2084 1137 1964 1137 1964 1336 2084 1336 2084 1290"/><polygon points="1893 1137 1849 1137 1849 1215 1795 1215 1795 1137 1751 1137 1751 1336 1795 1336 1795 1252 1849 1252 1849 1336 1893 1336"/><polygon points="1604 1290 1604 1250 1667 1250 1667 1213 1604 1213 1604 1183 1681 1183 1681 1137 1561 1137 1561 1336 1681 1336 1681 1290"/><path d="M1410.89,1220.84c6,7.32,25.32,28.33,34.28,41.48C1447,1265,1447,1266,1447,1273c0,6-18.62,13-31,13 c-20,0-32.33-11.47-38.96-20.54c-12.04-16.46-14.04-44.46-3.65-61.37c28.68-46.68,76.61-15.09,76.61-15.09c7.89-5.26,30-25,34-28 c0,0-16.56-18.07-43.05-24.99C1395,1124,1341,1148,1327.07,1204.15C1316.09,1241.2,1326,1287,1360,1311c46.92,33.12,86,15,86,15v4 l44.61,32.98l0.07-141.77C1490.68,1221.2,1435.78,1220.84,1410.89,1220.84z"/></g><g id="Logo_00000010274349691072251150000008498721222654214531_"><polygon points="1442 505 1441.54 188.9 1163 505"/><polygon points="1396.45 922.39 1680 922 1106.13 505.01 1105.29 188.77 827.22 504.46"/><polygon points="766 506 766 189 487.99 505.45 1058 923 1057.52 1235.44 1337 918"/><polygon points="842 1096 1000 918 429 505 428.82 190.72 152 505 721 923 721 1230 1204 1591"/></g></svg>