<?xml version="1.0" encoding="UTF-8"?>
<svg xmlns="http://www.w3.org/2000/svg" viewBox="0 0 600 600">
  <defs>
    <style>
      .cls-1 {
        fill: #231815;
      }
    </style>
  </defs>
  <g id="_图层_2" data-name="图层 2">
    <g>
      <path class="cls-1" d="m180.58,327.53c-24.56-12.66-43.2-35.19-50.63-62.36h-25.91c8.74,39.01,35.69,71.13,71.46,86.99,1.15-8.4,2.86-16.62,5.08-24.62Z"/>
      <path class="cls-1" d="m226.16,112.55c-60.45,0-110.89,42.86-122.59,99.85h26.38c11.57-42.31,50.28-73.41,96.26-73.41,55.12,0,99.8,44.68,99.8,99.8s-44.68,99.8-99.8,99.8c-2.89,0-5.75-.12-8.58-.36-2.22,7.74-3.84,15.73-4.79,23.93,4.37.46,8.81.7,13.3.7,69.12,0,125.15-56.03,125.15-125.15s-56.03-125.15-125.15-125.15Z"/>
    </g>
    <g>
      <path class="cls-1" d="m407.3,367.7s-.01,0-.02,0c-.59,46.05-32.29,84.61-75.06,95.57h0v24.95c57.29-11.57,100.43-62.2,100.43-122.9,0-1.92-.05-3.83-.14-5.73-14.67,8.13-25.21,8.11-25.21,8.11Z"/>
      <path class="cls-1" d="m307.32,266.42c41.84,0,77.68,25.71,92.59,62.18h0s13.22-2.43,24.22-8.79c-18.22-46.75-63.67-79.88-116.87-79.88-69.25,0-125.39,56.14-125.39,125.39,0,58.9,40.62,108.31,95.37,121.76v-25.29h0c-40.53-12.77-69.92-50.64-69.92-95.38,0-55.22,44.77-99.99,99.99-99.99Z"/>
    </g>
    <g>
      <path class="cls-1" d="m478.28,265.11c-11.43,42.57-50.13,73.9-96.13,73.9-54.98,0-99.56-44.77-99.56-99.99,0-20.97,6.43-40.42,17.41-56.5,0,0,0,0,0,0-10.83-12.56-18.69-18.48-18.74-18.53-15.1,20.73-24.02,46.29-24.02,73.94,0,69.25,55.9,125.39,124.85,125.39,59.66,0,109.54-42.03,121.9-98.21h-25.71Z"/>
      <path class="cls-1" d="m328.61,154.71h0c15.46-9.92,33.83-15.67,53.53-15.67,45.98,0,84.67,31.31,96.11,73.85h0s26.18,0,26.18,0c-11.56-57.24-61.95-100.33-122.35-100.33-26.53,0-51.12,8.32-71.35,22.49,12.01,10.64,17.87,19.67,17.87,19.67Z"/>
    </g>
  </g>
  <g id="_图层_3" data-name="图层 3">
    <path class="cls-1" d="m170.63,203.82l136.34,215.26,136.34-215.26H170.63Zm44.17,22.97h185.23l-92.61,149.6-92.61-149.6Z"/>
  </g>
</svg>