<?xml version="1.0" encoding="UTF-8"?>
<svg id="_图层_1" data-name="图层 1" xmlns="http://www.w3.org/2000/svg" viewBox="0 0 986.85 1179.63">
  <defs>
    <style>
      .cls-1 {
        fill: #d3e3ff;
      }

      .cls-1, .cls-2, .cls-3, .cls-4, .cls-5, .cls-6, .cls-7 {
        stroke-miterlimit: 10;
      }

      .cls-1, .cls-2, .cls-5, .cls-7 {
        stroke-width: 15px;
      }

      .cls-1, .cls-5 {
        stroke: #bdc1ed;
      }

      .cls-2, .cls-3, .cls-4 {
        stroke-linecap: round;
      }

      .cls-2, .cls-3, .cls-4, .cls-5, .cls-6, .cls-7 {
        fill: none;
      }

      .cls-2, .cls-7 {
        stroke: #525e78;
      }

      .cls-3 {
        stroke: #fcf;
      }

      .cls-3, .cls-4 {
        stroke-width: 10px;
      }

      .cls-4 {
        stroke: #f8ef9a;
      }

      .cls-8 {
        fill: #beb4ff;
      }

      .cls-6 {
        stroke: #8398cd;
        stroke-width: 8px;
      }

      .cls-9 {
        fill: #ffedff;
      }
    </style>
  </defs>
  <g id="_图层_3" data-name=" 图层 3">
    <rect class="cls-1" x="273.88" y="207.82" width="452.47" height="744.07"/>
  </g>
  <g id="_图层_5" data-name=" 图层 5">
    <polyline class="cls-9" points="274.99 628.55 301.93 591.11 274.54 573.99 274.99 542.42 327.1 516.36 274.99 399.29 384.53 421.67 382.03 343.2 463.26 405.63 544.84 296.72 578.45 401.94 649.29 361.4 633.81 456.28 725.09 472.62 727.31 525.63 695.06 550.36 727.31 572.83 725.09 605.58 672.08 628.11 727.31 737.21 727.31 751.35 616.88 722.19 618.2 796.85 535.16 737.21 453.44 846.75 418.09 738.98 350.96 779.17 365.09 682.44 274.54 670.07 274.99 628.55"/>
  </g>
  <g id="_图层_2" data-name=" 图层 2">
    <path class="cls-7" d="m409.1,443.57l48.15,68.11c2.43,3.44,6.39,5.49,10.6,5.49h44.97c4.16,0,8.06-1.99,10.5-5.36l49.48-68.33c.96-1.32,3.01-1,3.52.55l27.07,82.43c.55,1.69,1.44,3.24,2.6,4.58,15.32,17.64,121.52,149.03-104.23,158.39-92.55,3.84-136.96-26.39-136.96-26.39-51.62-40.78,1.08-114.9,10.23-126.97.88-1.16,1.56-2.47,2.01-3.86l28.54-88.11c.51-1.57,2.59-1.88,3.54-.54h-.02Z"/>
    <path class="cls-7" d="m583.39,565.29l-52.24,33.8c-2.18,1.28-2.61,4.24-.88,6.09,6.55,6.99,22.38,17.33,39.23,7.21,19.78-11.87,16.02-40.69,15.02-46.58-.09-.52-.67-.79-1.13-.52Z"/>
    <path class="cls-2" d="m541.06,555.23s-13.45,8.63-20.68,17.38"/>
    <path class="cls-7" d="m402.91,566.21l55.55,37.39c.63.63-2.44,3.37-3.09,3.98-4.23,3.86-19.94,13.67-38.84,9.03-17.86-4.39-20.61-34.5-20.13-46.13.09-2.16,4.66-5.37,6.52-4.26h0Z"/>
    <path class="cls-2" d="m476.79,646.55l15.16-13.88c.3-.27.75-.29,1.07-.03l16.9,13.91"/>
    <path class="cls-2" d="m440.78,554.13c3.2,1.44,17.6,13.58,24.52,19.66"/>
  </g>
  <g id="_图层_4" data-name=" 图层 4">
    <polygon class="cls-8" points="440.78 922.9 544.81 786.48 650.7 861.83 648.16 767.48 727.24 782.05 727.24 751.13 616.81 721.98 618.14 796.63 535.09 737 453.38 846.55 418.03 738.77 350.9 778.96 365.03 682.23 274.48 669.86 274.48 704.98 325.28 718.01 307.16 839.48 394.19 791.77 440.78 922.9"/>
    <polygon class="cls-8" points="672.02 627.9 727.24 737 725.02 605.37 672.02 627.9"/>
    <polygon class="cls-8" points="695 550.15 727.24 572.62 727.24 525.42 695 550.15"/>
    <polygon class="cls-8" points="725.02 472.41 633.74 456.07 649.24 361.19 578.38 401.74 544.78 296.51 463.19 405.42 381.97 342.99 384.47 421.47 274.91 399.09 327.04 516.14 274.91 542.2 274.91 366.4 355.16 370.08 352.76 283.52 454.04 354.48 560.27 217.1 603.34 349.25 693.22 298.37 677.77 422.94 725.77 431.04 725.02 472.41"/>
    <polygon class="cls-8" points="274.48 573.79 301.87 590.89 274.91 628.35 274.48 573.79"/>
  </g>
  <g id="_图层_6" data-name=" 图层 6">
    <path class="cls-6" d="m528.79,872.32s54.68-32.13,57.77-34.12,9.2-8.2,10.75-9.03-15.12,89.71-18.49,96.01c-3.37,5.74-6.63,0-6.63,0l-25.7-100.74c-.31-1.23,1.21-2.07,2.08-1.14,12.68,13.49,54.88,57.41,59.24,63.96s1.81,12.6-2.58,12.58l-17.24-1.56c-.54,0-59.03-23.63-59.03-23.63-1-.4-1.1-1.78-.17-2.32h0Z"/>
  </g>
  <g id="_图层_7" data-name=" 图层 7">
    <path class="cls-4" d="m315.16,296.95c12.73,8.28,65.11,42.53,67.97,47.21.15,8.39-43.73,27.68-73.03,11.48,17.82-19.29,33.28-65.23,36.52-70.67s9.72,83.78,0,89.52c-8.63,5.1-26.63-62.35-31.46-77.54"/>
  </g>
  <g id="_图层_8" data-name=" 图层 8">
    <path class="cls-3" d="m607.83,291.45c2.75.29,34.49-21.13,36.81-23.56s-13.29,65.19-18.4,57.72-14.98-75.28-15.46-78.92,35.48,48.4,37.99,48.88-43.68-4.41-40.93-4.12h0Z"/>
  </g>
  <g id="_图层_3-2" data-name=" 图层 3">
    <rect class="cls-5" x="274.69" y="207.82" width="452.47" height="744.07"/>
  </g>
</svg>